<svg width="20" height="20" viewBox="0 0 20 20" fill="none" xmlns="http://www.w3.org/2000/svg">
<path opacity="0.5" d="M10 0.3125C4.64844 0.3125 0.3125 4.64844 0.3125 10C0.3125 15.3516 4.64844 19.6875 10 19.6875C15.3516 19.6875 19.6875 15.3516 19.6875 10C19.6875 4.64844 15.3516 0.3125 10 0.3125ZM14.75 12.543C14.7937 12.5865 14.8284 12.6383 14.852 12.6952C14.8757 12.7522 14.8879 12.8133 14.8879 12.875C14.8879 12.9367 14.8757 12.9978 14.852 13.0548C14.8284 13.1117 14.7937 13.1635 14.75 13.207L13.2031 14.75C13.1596 14.7937 13.1078 14.8284 13.0509 14.852C12.9939 14.8757 12.9328 14.8879 12.8711 14.8879C12.8094 14.8879 12.7483 14.8757 12.6913 14.852C12.6344 14.8284 12.5826 14.7937 12.5391 14.75L10 12.1875L7.45703 14.75C7.41348 14.7937 7.36174 14.8284 7.30476 14.852C7.24778 14.8757 7.18669 14.8879 7.125 14.8879C7.06331 14.8879 7.00222 14.8757 6.94524 14.852C6.88826 14.8284 6.83652 14.7937 6.79297 14.75L5.25 13.2031C5.2063 13.1596 5.17163 13.1078 5.14797 13.0509C5.12431 12.9939 5.11213 12.9328 5.11213 12.8711C5.11213 12.8094 5.12431 12.7483 5.14797 12.6913C5.17163 12.6344 5.2063 12.5826 5.25 12.5391L7.8125 10L5.25 7.45703C5.2063 7.41348 5.17163 7.36174 5.14797 7.30476C5.12431 7.24778 5.11213 7.18669 5.11213 7.125C5.11213 7.06331 5.12431 7.00222 5.14797 6.94524C5.17163 6.88826 5.2063 6.83652 5.25 6.79297L6.79688 5.24609C6.84042 5.20239 6.89217 5.16772 6.94915 5.14406C7.00612 5.1204 7.06721 5.10822 7.12891 5.10822C7.1906 5.10822 7.25169 5.1204 7.30866 5.14406C7.36564 5.16772 7.41739 5.20239 7.46094 5.24609L10 7.8125L12.543 5.25C12.5865 5.2063 12.6383 5.17163 12.6952 5.14797C12.7522 5.12431 12.8133 5.11213 12.875 5.11213C12.9367 5.11213 12.9978 5.12431 13.0548 5.14797C13.1117 5.17163 13.1635 5.2063 13.207 5.25L14.7539 6.79688C14.7976 6.84042 14.8323 6.89217 14.8559 6.94915C14.8796 7.00612 14.8918 7.06721 14.8918 7.12891C14.8918 7.1906 14.8796 7.25169 14.8559 7.30866C14.8323 7.36564 14.7976 7.41739 14.7539 7.46094L12.1875 10L14.75 12.543Z" fill="white"/>
<path d="M14.75 12.543C14.7937 12.5865 14.8284 12.6383 14.852 12.6953C14.8757 12.7522 14.8879 12.8133 14.8879 12.875C14.8879 12.9367 14.8757 12.9978 14.852 13.0548C14.8284 13.1118 14.7937 13.1635 14.75 13.2071L13.2031 14.75C13.1596 14.7937 13.1078 14.8284 13.0508 14.8521C12.9939 14.8757 12.9328 14.8879 12.8711 14.8879C12.8094 14.8879 12.7483 14.8757 12.6913 14.8521C12.6344 14.8284 12.5826 14.7937 12.5391 14.75L10 12.1875L7.45703 14.75C7.41348 14.7937 7.36173 14.8284 7.30476 14.8521C7.24778 14.8757 7.18669 14.8879 7.125 14.8879C7.0633 14.8879 7.00222 14.8757 6.94524 14.8521C6.88826 14.8284 6.83652 14.7937 6.79297 14.75L5.25 13.2031C5.2063 13.1596 5.17163 13.1079 5.14797 13.0509C5.12431 12.9939 5.11213 12.9328 5.11213 12.8711C5.11213 12.8094 5.12431 12.7483 5.14797 12.6914C5.17163 12.6344 5.2063 12.5826 5.25 12.5391L7.8125 10L5.25 7.45705C5.2063 7.4135 5.17163 7.36176 5.14797 7.30478C5.12431 7.2478 5.11213 7.18672 5.11213 7.12502C5.11213 7.06333 5.12431 7.00224 5.14797 6.94526C5.17163 6.88829 5.2063 6.83654 5.25 6.79299L6.79687 5.24612C6.84042 5.20242 6.89217 5.16774 6.94915 5.14408C7.00612 5.12042 7.06721 5.10825 7.1289 5.10825C7.1906 5.10825 7.25169 5.12042 7.30866 5.14408C7.36564 5.16774 7.41739 5.20242 7.46094 5.24612L10 7.81252L12.543 5.25002C12.5865 5.20632 12.6383 5.17165 12.6952 5.14799C12.7522 5.12433 12.8133 5.11215 12.875 5.11215C12.9367 5.11215 12.9978 5.12433 13.0548 5.14799C13.1117 5.17165 13.1635 5.20632 13.207 5.25002L14.7539 6.7969C14.7976 6.84045 14.8323 6.89219 14.8559 6.94917C14.8796 7.00615 14.8918 7.06723 14.8918 7.12893C14.8918 7.19062 14.8796 7.25171 14.8559 7.30869C14.8323 7.36566 14.7976 7.41741 14.7539 7.46096L12.1875 10L14.75 12.543Z" fill="white"/>
</svg>
