<svg width="21" height="22" viewBox="0 0 21 22" fill="none" xmlns="http://www.w3.org/2000/svg">
<path d="M19.125 15.7227V6.27734C20.2237 5.83203 21 4.75812 21 3.5C21 1.84297 19.657 0.5 18 0.5C16.7419 0.5 15.668 1.27625 15.2227 2.375H5.77734C5.33203 1.27625 4.25859 0.5 3 0.5C1.34297 0.5 0 1.84297 0 3.5C0 4.75812 0.77625 5.83203 1.875 6.27734V15.7222C0.77625 16.168 0 17.2414 0 18.5C0 20.157 1.34297 21.5 3 21.5C4.25859 21.5 5.33203 20.7237 5.77734 19.625H15.2222C15.6675 20.7237 16.7414 21.5 17.9995 21.5C19.6566 21.5 20.9995 20.157 20.9995 18.5C21 17.2414 20.2237 16.168 19.125 15.7227ZM4.125 15.7227V6.27734C4.49688 6.12635 4.83471 5.90232 5.11852 5.61851C5.40232 5.33471 5.62635 4.99688 5.77734 4.625H15.2222C15.3732 4.99688 15.5972 5.33471 15.881 5.61851C16.1648 5.90232 16.5027 6.12635 16.8745 6.27734V15.7222C16.5027 15.8732 16.1648 16.0972 15.881 16.381C15.5972 16.6648 15.3732 17.0027 15.2222 17.3745H5.77734C5.62626 17.0028 5.40221 16.665 5.1184 16.3813C4.8346 16.0976 4.49682 15.8736 4.125 15.7227ZM18 2.75C18.4134 2.75 18.75 3.08656 18.75 3.5C18.75 3.91344 18.4134 4.25 18 4.25C17.5866 4.25 17.25 3.91344 17.25 3.5C17.25 3.08656 17.5866 2.75 18 2.75ZM3 2.75C3.41344 2.75 3.75 3.08656 3.75 3.5C3.75 3.91344 3.41344 4.25 3 4.25C2.58656 4.25 2.25 3.91344 2.25 3.5C2.25 3.08656 2.58656 2.75 3 2.75ZM3 19.25C2.58656 19.25 2.25 18.9134 2.25 18.5C2.25 18.0866 2.58656 17.75 3 17.75C3.41344 17.75 3.75 18.0866 3.75 18.5C3.75 18.9134 3.41344 19.25 3 19.25ZM18 19.25C17.5866 19.25 17.25 18.9134 17.25 18.5C17.25 18.0866 17.5866 17.75 18 17.75C18.4134 17.75 18.75 18.0866 18.75 18.5C18.75 18.9134 18.4134 19.25 18 19.25Z" fill="white"/>
</svg>
